# xmcd
#
# Track frame offsets:
#	150
#	14805
#	29052
#	42917
#	59985
#	73327
#	87632
#	102342
#	116597
#	134950
#	154025
#	165432
#
# Disc length: 2428
#
# Revision: 2
# Processed by: cddbd v1.5.1PL0 Copyright (c) Steve Scherf et al.
# Submitted via: CDex 1.30
# Normalized: r1:TDELIM( - )
#
DISCID=bd097a0c
DTITLE=Various Artist - New Country Classics - Rockin' Country
DYEAR=2001
DGENRE=Country
TTITLE0=Steve Wariner - Life's Highway
TTITLE1=Suzy Bogguss - Drive South
TTITLE2=Mark Chesnutt - Brother Jukebox
TTITLE3=Billy Ray Cyrus - Could've Been Me
TTITLE4=Hal Ketchum - Small Town Saturday Night
TTITLE5=Kentucky Headhunters - Oh Lonesome Me
TTITLE6=Marty Stewart - Tempted
TTITLE7=Pam Tillis - Shake The Sugar Tree
TTITLE8=Lionel Cartwright - Leap Of Faith
TTITLE9=Desert Rose Band - I Still Believe In You
TTITLE10=Patty Loveless - Timber, I'm Falling In Love
TTITLE11=Conway Twitty - She's Got A Single Thing In Mind
EXTD=\n\nYEAR: 2001  ID3G:   2
EXTT0=
EXTT1=
EXTT2=
EXTT3=
EXTT4=
EXTT5=
EXTT6=
EXTT7=
EXTT8=
EXTT9=
EXTT10=
EXTT11=
PLAYORDER=
